<?xml version="1.0" encoding="utf-8"?>
<!-- Generator: Adobe Illustrator 15.0.0, SVG Export Plug-In . SVG Version: 6.00 Build 0)  -->
<!DOCTYPE svg PUBLIC "-//W3C//DTD SVG 1.1//EN" "http://www.w3.org/Graphics/SVG/1.1/DTD/svg11.dtd">
<svg version="1.1" id="图层_1" xmlns="http://www.w3.org/2000/svg" xmlns:xlink="http://www.w3.org/1999/xlink" x="0px" y="0px"
      viewBox="0 0 595.28 593" enable-background="new 0 0 595.28 593" xml:space="preserve">
<path  d="M297.973,41.436c140.488,0,254.776,114.295,254.776,254.76c0,140.492-114.288,254.766-254.776,254.766
	c-140.479,0-254.771-114.273-254.771-254.766C43.202,155.731,157.494,41.436,297.973,41.436 M297.973,521.271
	c124.117,0,225.083-100.95,225.083-225.075c0-124.11-100.966-225.077-225.083-225.077c-124.108,0-225.078,100.966-225.078,225.077
	C72.895,420.32,173.865,521.271,297.973,521.271 M297.973,36.484c-143.199,0-259.701,116.51-259.701,259.711
	c0,143.197,116.502,259.712,259.701,259.712c143.208,0,259.722-116.515,259.722-259.712
	C557.695,152.994,441.181,36.484,297.973,36.484L297.973,36.484z M297.973,516.321c-121.388,0-220.132-98.739-220.132-220.126
	c0-121.381,98.744-220.146,220.132-220.146c121.398,0,220.136,98.765,220.136,220.146
	C518.109,417.582,419.371,516.321,297.973,516.321L297.973,516.321z M297.973,38.961v34.623
	c122.744,0,222.611,99.866,222.611,222.611h34.637C555.221,154.351,439.823,38.961,297.973,38.961z M298.896,0h-4.636v24.95h4.636V0
	z M89.187,86.109l-3.275,3.271l17.645,17.644l3.274-3.279L89.187,86.109z M1.788,295.288v4.612h24.933v-4.612H1.788z
	 M87.892,504.996l3.254,3.255l17.645-17.627l-3.274-3.272L87.892,504.996z M297.062,592.396h4.626v-24.95h-4.626V592.396z
	 M506.769,506.289l3.271-3.273l-17.645-17.645l-3.271,3.279L506.769,506.289z M594.184,297.113v-4.616h-24.952v4.616H594.184z
	 M508.06,87.406l-3.256-3.271l-17.645,17.637l3.279,3.27L508.06,87.406z M224.853,20.487l-2.226,0.6l3.234,12.049l2.228-0.588
	L224.853,20.487z M155.991,48.811l-1.998,1.16l6.243,10.802l2.001-1.16L155.991,48.811z M51.331,152.945l-1.164,1.997l10.794,6.245
	l1.158-2.005L51.331,152.945z M22.649,221.665l-0.591,2.235l12.046,3.23l0.593-2.228L22.649,221.665z M22.267,369.311l0.608,2.251
	l12.049-3.239l-0.609-2.243L22.267,369.311z M50.586,438.176l1.163,2.014l10.791-6.246l-1.143-1.998L50.586,438.176z
	 M154.733,542.849l2.001,1.167l6.226-10.789l-2.001-1.186L154.733,542.849z M223.444,571.512l2.244,0.609l3.217-12.046l-2.227-0.586
	L223.444,571.512z M371.099,571.9l2.226-0.592l-3.229-12.049l-2.228,0.61L371.099,571.9z M439.964,543.571l1.999-1.133
	l-6.231-10.815l-2.012,1.157L439.964,543.571z M544.645,439.45l1.136-1.998l-10.792-6.244l-1.159,1.997L544.645,439.45z
	 M573.302,370.723l0.592-2.227l-12.03-3.224l-0.61,2.211L573.302,370.723z M573.688,223.086l-0.592-2.235l-12.064,3.22l0.607,2.236
	L573.688,223.086z M545.368,154.211l-1.166-1.998l-10.791,6.229l1.142,2.006L545.368,154.211z M441.236,49.543l-2.02-1.151
	l-6.223,10.794l1.999,1.158L441.236,49.543z M372.512,20.87l-2.228-0.6l-3.237,12.047l2.225,0.6L372.512,20.87z"/>
</svg>
