<svg t="1628560524186" class="icon" viewBox="0 0 1024 1024" version="1.1" xmlns="http://www.w3.org/2000/svg" p-id="2490" width="200" height="200"><path d="M796.444444 796.444444h-233.870222L312.888889 1000.732444V995.555556c-18.318222 0-25.230222-6.883556-27.591111-13.852445V967.111111s-0.512 1.649778-0.853334 4.039111V796.444444H227.555556a170.666667 170.666667 0 0 1-170.666667-170.666666V170.666667a56.888889 56.888889 0 0 1 56.888889-56.888889h796.444444a56.888889 56.888889 0 0 1 56.888889 56.888889v455.111111a170.666667 170.666667 0 0 1-170.666667 170.666666zM512 455.111111a227.271111 227.271111 0 0 0-202.268444 123.648l61.667555 7.395556a170.296889 170.296889 0 0 1 281.201778 0l61.696-7.395556A227.356444 227.356444 0 0 0 512 455.111111z m-227.555556 568.888889v-46.506667a19.399111 19.399111 0 0 0 0.853334 4.209778v41.585778L284.444444 1024z" p-id="2491"></path><path d="M796.444444 796.444444h-233.870222L312.888889 1000.732444V995.555556c-18.318222 0-25.230222-6.883556-27.591111-13.852445V967.111111s-0.512 1.649778-0.853334 4.039111V796.444444H227.555556a170.666667 170.666667 0 0 1-170.666667-170.666666V170.666667a56.888889 56.888889 0 0 1 56.888889-56.888889h796.444444a56.888889 56.888889 0 0 1 56.888889 56.888889v455.111111a170.666667 170.666667 0 0 1-170.666667 170.666666zM512 455.111111a227.271111 227.271111 0 0 0-202.268444 123.648l61.667555 7.395556a170.296889 170.296889 0 0 1 281.201778 0l61.696-7.395556A227.356444 227.356444 0 0 0 512 455.111111z m-227.555556 568.888889v-46.506667a19.399111 19.399111 0 0 0 0.853334 4.209778v41.585778L284.444444 1024z" p-id="2492"></path></svg>
